<svg height="512" viewBox="0 0 60 60" width="512" xmlns="http://www.w3.org/2000/svg"><g id="Page-1" fill="none" fill-rule="evenodd"><g id="036---Live" fill="#000" fill-rule="nonzero" transform="translate(-1)"><path id="Shape" d="m31 0c-4.9651807-.00022695-9.8529711 1.23048198-14.226 3.582-.3254087.16364384-.5361039.49127762-.5499965.85525169-.0138926.36397408.171215.70671532.4832028.89468806.3119877.18797273.7015058.19144357 1.0167937.00906025 11.9695099-6.43401835 26.8318013-3.33170689 35.2279203 7.3533736 8.396119 10.6850804 7.8952641 25.8594399-1.1871707 35.9676117s-24.1169494 12.2236896-35.6361388 5.0143877c-11.51918942-7.2093018-16.18807688-21.6562231-11.0666108-34.243373.20571842-.5107685-.04018979-1.0917384-.5500871-1.2996069s-1.09189801.0355899-1.3019129.5446069c-4.98320593 12.2236906-1.39229438 26.2683498 8.8464901 34.6001111 10.2387845 8.3317613 24.7201326 8.9933158 35.6759283 1.6297912 10.9557956-7.3635247 15.8122882-21.0222793 11.9643475-33.6494051-3.8479407-12.62712585-15.4963512-21.25624114-28.6967659-21.2584972z"/><path id="Shape" d="m7 30c0-.5522847-.44771525-1-1-1s-1 .4477153-1 1c0 14.3594035 11.6405965 26 26 26s26-11.6405965 26-26-11.6405965-26-26-26c-.5522847 0-1 .44771525-1 1s.4477153 1 1 1c13.254834 0 24 10.745166 24 24s-10.745166 24-24 24-24-10.745166-24-24z"/><path id="Shape" d="m3 9h3c1.65685425 0 3-1.34314575 3-3v-3c0-.55228475-.44771525-1-1-1s-1 .44771525-1 1v3c0 .55228475-.44771525 1-1 1h-3c-.55228475 0-1 .44771525-1 1s.44771525 1 1 1z"/><path id="Shape" d="m17 7h-3c-.5522847 0-1-.44771525-1-1v-3c0-.55228475-.4477153-1-1-1s-1 .44771525-1 1v3c0 1.65685425 1.3431458 3 3 3h3c.5522847 0 1-.44771525 1-1s-.4477153-1-1-1z"/><path id="Shape" d="m3 13h3c.55228475 0 1 .4477153 1 1v3c0 .5522847.44771525 1 1 1s1-.4477153 1-1v-3c0-1.6568542-1.34314575-3-3-3h-3c-.55228475 0-1 .4477153-1 1s.44771525 1 1 1z"/><path id="Shape" d="m13 17v-3c0-.5522847.4477153-1 1-1h3c.5522847 0 1-.4477153 1-1s-.4477153-1-1-1h-3c-1.6568542 0-3 1.3431458-3 3v3c0 .5522847.4477153 1 1 1s1-.4477153 1-1z"/><path id="Shape" d="m27 17h-2c-1.6568542 0-3 1.3431458-3 3v6c0 1.6568542 1.3431458 3 3 3h2c1.6568542 0 3-1.3431458 3-3v-6c0-1.6568542-1.3431458-3-3-3zm1 9c0 .5522847-.4477153 1-1 1h-2c-.5522847 0-1-.4477153-1-1v-6c0-.5522847.4477153-1 1-1h2c.5522847 0 1 .4477153 1 1z"/><path id="Shape" d="m20 34v8c0 .5522847.4477153 1 1 1s1-.4477153 1-1v-4h4v4c0 .5522847.4477153 1 1 1s1-.4477153 1-1v-8c0-1.6568542-1.3431458-3-3-3h-2c-1.6568542 0-3 1.3431458-3 3zm3-1h2c.5522847 0 1 .4477153 1 1v2h-4v-2c0-.5522847.4477153-1 1-1z"/><path id="Shape" d="m39 17c-.5522847 0-1 .4477153-1 1v6.39l-4.143-6.905c-.2315033-.385003-.6913367-.5683703-1.1242424-.448313s-.7326155.514068-.7327576.963313v10c0 .5522847.4477153 1 1 1s1-.4477153 1-1v-6.39l4.143 6.905c.1807575.3008613.5060146.4849332.857.485.0902035-.0000943.1799927-.0122007.267-.036.4332476-.1200348.7331364-.5144315.733-.964v-10c0-.5522847-.4477153-1-1-1z"/><path id="Shape" d="m30 42c0 .5522847.4477153 1 1 1s1-.4477153 1-1v-10c0-.5522847-.4477153-1-1-1s-1 .4477153-1 1z"/><path id="Shape" d="m42 36v-2c0-1.6568542-1.3431458-3-3-3h-4c-.5522847 0-1 .4477153-1 1v10c0 .5522847.4477153 1 1 1s1-.4477153 1-1v-3h2.725c.7273142.4171875 1.2037653 1.1645618 1.275 2v1c0 .5522847.4477153 1 1 1s1-.4477153 1-1v-1c-.0068982-1.008457-.389883-1.9780432-1.074-2.719.6776213-.5641589 1.0708333-1.3992767 1.074-2.281zm-6-3h3c.5522847 0 1 .4477153 1 1v2c0 .5522847-.4477153 1-1 1h-3z"/></g></g></svg>